Coordinates
version=1
nRows=19
nColumns=24
inDegrees=yes

Units are S.I. units (second, meters, Newtons, ...)
Angles are in degrees.

endheader
time	pelvis_tilt	pelvis_list	pelvis_rotation	pelvis_tx	pelvis_ty	pelvis_tz	hip_flexion_r	hip_adduction_r	hip_rotation_r	knee_angle_r	ankle_angle_r	subtalar_angle_r	mtp_angle_r	hip_flexion_l	hip_adduction_l	hip_rotation_l	knee_angle_l	ankle_angle_l	subtalar_angle_l	mtp_angle_l	lumbar_extension	lumbar_bending	lumbar_rotation
      4.28000000	     30.19289215	     14.71460722	     12.70097313	      0.59984527	      0.64593647	     -0.30112358	     -7.38503241	    -12.27333193	    -16.10449351	      0.21727760	     12.68374751	      8.36352424	      0.00000000	    -52.80890156	      0.25270876	      2.84411963	    -15.78145393	     14.44764029	     18.45585240	      0.00000000	    -64.68101303	     -2.64632978	    -13.71593974
      4.28500000	     30.47153647	     14.39321894	     12.76921128	      0.60807118	      0.64506251	     -0.30090444	     -7.22976699	    -11.81395950	    -16.01064765	     -1.02955669	     12.52250715	      8.23327859	      0.00000000	    -53.32995636	     -0.41162213	      2.77170328	    -16.50061943	     13.54369673	     18.56694865	      0.00000000	    -64.73625923	     -2.26888524	    -13.60610911
      4.29000000	     30.65975954	     14.13045108	     12.90676099	      0.61631075	      0.64421243	     -0.30069513	     -6.96810985	    -11.44229091	    -15.97444121	     -2.50734543	     12.33065986	      8.15783724	      0.00000000	    -53.66050113	     -1.04637844	      2.79084002	    -17.39148768	     12.50557320	     18.62485106	      0.00000000	    -64.72626759	     -1.91097227	    -13.59893262
      4.29500000	     30.96851023	     13.73098996	     12.98444832	      0.62461438	      0.64337596	     -0.30053472	     -6.75115894	    -10.90620106	    -15.69697775	     -4.17497218	     11.94745346	      7.73477162	      0.00000000	    -54.07018725	     -1.74345499	      2.63082262	    -18.33558901	     11.44364172	     18.59929247	      0.00000000	    -64.77838965	     -1.45777432	    -13.40811869
      4.30000000	     31.20239803	     13.43203059	     13.13287070	      0.63295264	      0.64260073	     -0.30038370	     -6.49122886	    -10.49553758	    -15.59828767	     -5.97767239	     11.54435151	      7.60801664	      0.00000000	    -54.31444917	     -2.40003000	      2.54873274	    -19.42187631	     10.14071373	     18.59841416	      0.00000000	    -64.77864460	     -1.04322798	    -13.40308036
      4.30500000	     31.49325366	     13.02565699	     13.19539801	      0.64132267	      0.64177037	     -0.30018283	     -6.19152995	     -9.94795016	    -15.08898375	     -7.94433387	     11.00195310	      6.93854195	      0.00000000	    -54.54662257	     -3.05378582	      2.31021186	    -20.61342079	      8.82294400	     18.41193893	      0.00000000	    -64.80697067	     -0.61399511	    -13.21114058
      4.31000000	     31.70675109	     12.64149720	     13.14506281	      0.64971096	      0.64089996	     -0.29985694	     -5.73569548	     -9.45791669	    -14.43459117	    -10.06958149	     10.42744868	      6.37252304	      0.00000000	    -54.63131703	     -3.57635237	      1.93076381	    -21.89534801	      7.28665829	     18.32825868	      0.00000000	    -64.77411555	     -0.32416027	    -12.97346351
      4.31500000	     31.94420905	     12.30106007	     13.30222346	      0.65813020	      0.64014388	     -0.29967804	     -5.44053445	     -8.95185297	    -14.00779428	    -12.14123085	      9.85325754	      5.79108359	      0.00000000	    -54.61037246	     -4.22345947	      1.74254950	    -23.37011362	      5.65185024	     17.94831240	      0.00000000	    -64.75777199	      0.11834565	    -12.96339105
      4.32000000	     32.15900274	     11.95427911	     13.36412193	      0.66653770	      0.63936237	     -0.29934958	     -5.06335986	     -8.42226750	    -13.33806180	    -14.29837641	      9.26569217	      5.00986311	      0.00000000	    -54.48461749	     -4.79049941	      1.44047195	    -24.94191697	      3.85561146	     17.54402032	      0.00000000	    -64.73307146	      0.46478205	    -12.88175614
      4.32500000	     32.24237159	     11.59876237	     13.22678847	      0.67495304	      0.63845003	     -0.29878314	     -4.43684486	     -7.91460124	    -12.37303699	    -16.58416277	      8.79096547	      4.22352516	      0.00000000	    -54.14761192	     -5.17214227	      0.93553619	    -26.61253254	      1.93099844	     17.19814533	      0.00000000	    -64.59457314	      0.58870267	    -12.62024423
      4.33000000	     32.39523536	     11.27269077	     13.27833013	      0.68336096	      0.63769114	     -0.29833524	     -4.03219637	     -7.35567269	    -11.64057803	    -18.74013088	      8.43400586	      3.43392907	      0.00000000	    -53.76648631	     -5.69957721	      0.57111170	    -28.40725995	     -0.09662735	     16.55324623	      0.00000000	    -64.52479447	      0.86833317	    -12.53551241
      4.33500000	     32.55738091	     10.93090111	     13.33080155	      0.69176328	      0.63697009	     -0.29784685	     -3.67605354	     -6.74051887	    -10.91905575	    -20.84445568	      8.23903101	      2.63503164	      0.00000000	    -53.30674588	     -6.24354202	      0.16721849	    -30.28830418	     -2.19869537	     15.76889699	      0.00000000	    -64.45795637	      1.14908341	    -12.42616326
      4.34000000	     32.70981687	     10.58497425	     13.39287211	      0.70013332	      0.63629717	     -0.29731524	     -3.35811031	     -6.08959825	    -10.23789985	    -22.88186721	      8.23110419	      1.86164180	      0.00000000	    -52.74753737	     -6.79921349	     -0.25432579	    -32.24831456	     -4.34054267	     14.82839963	      0.00000000	    -64.39050172	      1.42536167	    -12.31307223
      4.34500000	     32.95504990	     10.20790760	     13.61566103	      0.70847776	      0.63580003	     -0.29692672	     -3.28637435	     -5.34891027	     -9.84301150	    -24.72901564	      8.37929319	      1.23535095	      0.00000000	    -52.19016895	     -7.53555870	     -0.63144210	    -34.26897835	     -6.46102815	     13.70525022	      0.00000000	    -64.39284461	      1.87744546	    -12.27011778
      4.35000000	     33.16226804	      9.85040118	     13.77684917	      0.71672911	      0.63532193	     -0.29640173	     -3.18846355	     -4.60822974	     -9.36644280	    -26.53803398	      8.73995535	      0.54440412	      0.00000000	    -51.51661109	     -8.19661985	     -0.98656305	    -36.34476563	     -8.54535814	     12.47281791	      0.00000000	    -64.39030143	      2.23222217	    -12.14615308
      4.35500000	     33.23594783	      9.51886718	     13.79826582	      0.72483375	      0.63477350	     -0.29579801	     -2.92899497	     -3.94262219	     -8.80898808	    -28.34883615	      9.35997096	     -0.12740199	      0.00000000	    -50.62677848	     -8.65904660	     -1.32090138	    -38.50512894	    -10.49259797	     11.09662888	      0.00000000	    -64.29703274	      2.43764660	    -11.94847291
      4.36000000	     33.44500512	      9.09443124	     14.03099278	      0.73300481	      0.63450028	     -0.29533076	     -3.02187007	     -3.11436398	     -8.65140731	    -29.83579575	     10.07196566	     -0.59118141	      0.00000000	    -49.82298752	     -9.43346566	     -1.68762945	    -40.63258496	    -12.30198767	      9.74849530	      0.00000000	    -64.28394187	      2.87168520	    -11.79464438
      4.36500000	     33.63385864	      8.71138254	     14.24902592	      0.74098419	      0.63429961	     -0.29488001	     -3.14253975	     -2.32761776	     -8.47065631	    -31.23904513	     10.89657227	     -1.03728733	      0.00000000	    -48.92770522	    -10.11337967	     -1.89323461	    -42.80276446	    -13.84289740	      8.22484409	      0.00000000	    -64.28691904	      3.26296508	    -11.58816384
      4.37000000	     33.62265339	      8.46153015	     14.43619168	      0.74866340	      0.63410941	     -0.29442819	     -3.10645269	     -1.77455433	     -8.39252757	    -32.57188160	     11.91603070	     -1.34062356	      0.00000000	    -47.70191232	    -10.56043225	     -1.87302663	    -45.09604641	    -15.09510089	      6.63953620	      0.00000000	    -64.19011068	      3.51946790	    -11.52698012
